<svg width="439" height="288" viewBox="0 0 439 288" fill="none" xmlns="http://www.w3.org/2000/svg">
<path d="M0.126954 -1.19209e-05H18.377L79.627 153H81.127L121.127 54L99.377 -1.19209e-05H117.627L178.627 152.5H180.127L230.627 -1.19209e-05H248.877L176.877 178.5H171.377L124.627 62.25L77.627 178.5H72.127L0.126954 -1.19209e-05ZM257.807 175L283.631 107.8H289.583L315.407 175H308.399L296.495 143.512H274.703L264.815 175H257.807ZM284.303 112.792L275.375 141.208H295.631L284.879 112.792H284.303ZM340.619 175V109.72C339.659 109.72 337.675 109.912 334.667 110.296L315.851 112.696V107.8H371.915V112.696L353.099 110.296C350.091 109.912 348.107 109.72 347.147 109.72V175H340.619ZM438.171 166.744L437.595 172.6C435.803 173.368 433.627 174.04 431.067 174.616C428.507 175.192 425.915 175.608 423.291 175.864C420.667 176.184 418.331 176.344 416.283 176.344C411.099 176.344 406.299 175.48 401.883 173.752C397.467 171.96 393.595 169.496 390.267 166.36C387.003 163.224 384.443 159.544 382.587 155.32C380.731 151.032 379.803 146.392 379.803 141.4C379.803 136.408 380.731 131.8 382.587 127.576C384.443 123.288 387.003 119.576 390.267 116.44C393.595 113.304 397.467 110.872 401.883 109.144C406.299 107.352 411.099 106.456 416.283 106.456C418.395 106.456 420.763 106.616 423.387 106.936C426.011 107.256 428.571 107.704 431.067 108.28C433.563 108.792 435.675 109.4 437.403 110.104L436.923 115.48H436.347C433.979 113.304 431.003 111.64 427.419 110.488C423.835 109.336 420.123 108.76 416.283 108.76C410.523 108.76 405.435 110.136 401.019 112.888C396.667 115.576 393.243 119.384 390.747 124.312C388.315 129.176 387.099 134.872 387.099 141.4C387.099 147.992 388.315 153.72 390.747 158.584C393.243 163.448 396.667 167.256 401.019 170.008C405.371 172.696 410.459 174.04 416.283 174.04C420.635 174.04 424.667 173.336 428.379 171.928C432.155 170.52 435.227 168.792 437.595 166.744H438.171ZM110.089 286V218.8H116.617V249.904H156.937V218.8H163.465V286H156.937V252.208H116.617V286H110.089ZM188.464 286V218.8H217.744V223.504L200.944 221.296C198 220.912 196.016 220.72 194.992 220.72V250C195.824 250 197.808 249.904 200.944 249.712L216.688 248.752V253.168L200.944 252.208C197.808 252.016 195.824 251.92 194.992 251.92V284.08C196.144 284.08 198.16 283.888 201.04 283.504L218.032 281.296V286H188.464ZM238.152 218.8H251.016C257.8 218.8 263.048 220.24 266.76 223.12C270.536 225.936 272.424 229.904 272.424 235.024C272.424 238.992 271.24 242.288 268.872 244.912C266.568 247.536 263.208 249.296 258.792 250.192V250.768C263.016 251.6 266.472 253.584 269.16 256.72C271.848 259.856 273.864 263.728 275.208 268.336C276.424 272.56 277.608 275.856 278.76 278.224C279.976 280.528 281.288 282.192 282.696 283.216C284.168 284.24 285.896 284.976 287.88 285.424V286H283.944C281.128 286 278.792 285.488 276.936 284.464C275.144 283.44 273.608 281.712 272.328 279.28C271.048 276.848 269.832 273.488 268.68 269.2C266.824 262.608 264.36 257.936 261.288 255.184C258.216 252.432 254.472 251.056 250.056 251.056H249.48V249.328H250.056C260.36 249.328 265.512 244.592 265.512 235.12C265.512 225.776 260.68 221.104 251.016 221.104H244.68V286H238.152V218.8ZM293.89 283.888L294.466 278.128H295.042C297.538 280.304 300.354 282 303.49 283.216C306.626 284.432 309.73 285.04 312.802 285.04C317.154 285.04 320.674 283.856 323.362 281.488C326.05 279.056 327.394 275.824 327.394 271.792C327.394 269.552 326.882 267.472 325.858 265.552C324.898 263.632 323.266 261.68 320.962 259.696C318.722 257.712 315.618 255.568 311.65 253.264C308.898 251.664 306.274 250 303.778 248.272C301.282 246.48 299.234 244.432 297.634 242.128C296.034 239.76 295.234 236.944 295.234 233.68C295.234 228.816 296.994 224.912 300.514 221.968C304.034 218.96 308.674 217.456 314.434 217.456C316.994 217.456 319.746 217.744 322.69 218.32C325.634 218.832 327.906 219.504 329.506 220.336L329.026 225.712H328.45C324.802 221.744 320.13 219.76 314.434 219.76C310.338 219.76 307.042 220.816 304.546 222.928C302.05 224.976 300.802 227.76 300.802 231.28C300.802 233.904 301.474 236.176 302.818 238.096C304.226 239.952 306.018 241.648 308.194 243.184C310.37 244.656 312.706 246.096 315.202 247.504C318.082 249.168 320.866 250.928 323.554 252.784C326.306 254.64 328.546 256.88 330.274 259.504C332.066 262.064 332.962 265.296 332.962 269.2C332.962 272.784 332.13 275.952 330.466 278.704C328.802 281.392 326.434 283.504 323.362 285.04C320.354 286.576 316.834 287.344 312.802 287.344C310.242 287.344 307.234 287.024 303.778 286.384C300.322 285.744 297.026 284.912 293.89 283.888Z" fill="#7C0902"/>
</svg>
